<?xml version="1.0" standalone="no"?>
<!DOCTYPE svg PUBLIC "-//W3C//DTD SVG 20010904//EN"
 "http://www.w3.org/TR/2001/REC-SVG-20010904/DTD/svg10.dtd">
<svg version="1.0" xmlns="http://www.w3.org/2000/svg"
 width="1000.000000pt" height="1000.000000pt" viewBox="0 0 1000.000000 1000.000000"
 preserveAspectRatio="xMidYMid meet">
<g transform="translate(0.000000,1000.000000) scale(0.100000,-0.100000)"
fill="#2ba1c8" stroke="none">
<path d="M4660 9954 c-19 -2 -87 -9 -150 -15 -606 -56 -1214 -233 -1780 -519
-1294 -654 -2244 -1847 -2589 -3251 -102 -413 -141 -744 -141 -1189 0 -445 39
-776 141 -1189 345 -1404 1295 -2597 2589 -3251 567 -286 1127 -450 1785 -522
162 -18 808 -18 970 0 658 72 1218 236 1785 522 1087 550 1934 1477 2385 2611
101 256 118 331 119 524 1 123 -3 178 -18 240 -90 385 -376 671 -761 761 -71
17 -125 19 -480 19 -355 0 -409 -2 -480 -19 -220 -51 -414 -169 -556 -339 -75
-89 -126 -177 -189 -323 -302 -704 -925 -1236 -1670 -1424 -237 -60 -352 -74
-620 -74 -268 0 -383 14 -620 74 -895 226 -1593 936 -1805 1835 -47 198 -59
315 -59 555 0 240 12 357 59 555 212 899 910 1609 1805 1835 237 60 352 74
620 74 268 0 383 -14 620 -74 515 -130 981 -428 1319 -844 141 -172 232 -326
380 -636 58 -123 115 -204 206 -295 153 -154 326 -243 545 -281 77 -13 157
-15 474 -11 348 3 388 5 461 25 381 100 653 378 741 757 14 60 19 118 19 230
-1 185 -18 259 -111 495 -449 1132 -1297 2061 -2384 2610 -553 279 -1088 439
-1730 516 -127 15 -784 29 -880 18z"/>
<path d="M4755 6434 c-307 -57 -561 -184 -789 -394 -78 -72 -199 -225 -259
-327 -62 -106 -131 -277 -165 -411 -25 -100 -27 -121 -27 -322 0 -201 2 -222
27 -322 15 -58 47 -156 72 -218 182 -451 571 -782 1060 -898 102 -25 128 -27
326 -27 198 0 224 2 326 27 340 81 633 264 843 528 137 172 232 365 289 588
25 100 27 121 27 322 0 201 -2 222 -27 322 -15 58 -47 156 -72 218 -181 449
-572 782 -1055 897 -90 21 -135 26 -301 29 -144 2 -216 -1 -275 -12z"/>
</g>
</svg>
